<?xml version="1.0" encoding="UTF-8"?>
<!DOCTYPE svg PUBLIC "-//W3C//DTD SVG 1.1//EN" "http://www.w3.org/Graphics/SVG/1.1/DTD/svg11.dtd">
<!-- Creator: CorelDRAW 2019 (64-Bit) -->
<svg xmlns="http://www.w3.org/2000/svg" xml:space="preserve" width="240mm" height="360mm" version="1.1" style="shape-rendering:geometricPrecision; text-rendering:geometricPrecision; image-rendering:optimizeQuality; fill-rule:evenodd; clip-rule:evenodd"
viewBox="0 0 24000 36000"
 xmlns:xlink="http://www.w3.org/1999/xlink">
 <defs>
  <style type="text/css">
   <![CDATA[
    .str0 {stroke:#2B2A29;stroke-width:20;stroke-miterlimit:22.9256}
    .fil0 {fill:#FEFEFE}
    .fil1 {fill:#2B2A29}
    .fil9 {fill:#2B2A29}
    .fil7 {fill:#077736}
    .fil8 {fill:#167937}
    .fil6 {fill:#188638}
    .fil5 {fill:#49A538}
    .fil2 {fill:#68B43A}
    .fil3 {fill:#77B939}
    .fil4 {fill:#86B938}
   ]]>
  </style>
 </defs>
 <g id="Слой_x0020_1">
  <metadata id="CorelCorpID_0Corel-Layer"/>
  <path class="fil0" d="M8992.68 15696.16l30.62 90.02c7.55,98.19 -1186.68,733.79 -1330.81,815.9 -241.36,137.49 -457.59,270.76 -690.71,402.23 -155.28,87.57 -640.66,417.13 -711.9,349.07 -128.24,-122.5 275.49,-279.16 577.33,-450.01 337.84,-191.22 1921.12,-1142.52 2125.47,-1207.21zm-5585.77 -3126.53l170.58 -6.91 8.63 3165.83 -171.69 1.13 -7.52 -3160.05zm5625.49 -57.41l-41.99 85.82c-192.12,-60.7 -521.1,-283.72 -715.56,-392.18l-1743.89 -1007.67c-121.6,-73.36 -366.17,-137.03 -241.08,-256.53 70.88,-67.72 521.51,241.36 689.2,336.33l1385 803.53c135.65,79.76 633.58,301.55 668.32,430.7zm-5969.55 3494.28c321.19,189.4 3140.14,1823.49 3199.54,1823.49 63.6,0.01 2869.64,-1632.1 3208.12,-1823.49l-8.58 -3717.96c-315.55,-183.06 -3143.11,-1824.99 -3199.54,-1824.99 -52.55,0 -2892.78,1644.1 -3208.12,1824.99l8.58 3717.96z"/>
  <path class="fil1" d="M3054.27 12288.54c315.34,-180.89 3155.57,-1824.99 3208.12,-1824.99 56.43,0 2883.99,1641.93 3199.54,1824.99l8.58 3717.96c-338.48,191.39 -3144.52,1823.5 -3208.12,1823.49 -59.4,0 -2878.35,-1634.09 -3199.54,-1823.49l-8.58 -3717.96zm-142.58 3799.26c276.96,189.08 3313.59,1920.59 3350.7,1920.59 37.05,0 3074.12,-1731.77 3363.02,-1920.59l-12.32 -3880.56c-264.59,-180.63 -3310.96,-1920.7 -3350.69,-1920.71 -39.76,0 -3084.47,1738.95 -3363.03,1920.71l12.32 3880.56z"/>
  <path class="fil2" d="M6547.49 14170.34c119.5,-28.17 88.74,-35.71 220.02,-45.83 -25.6,240.18 -26.63,309.07 -41.79,617.28 -14.05,284.98 -63.06,63.57 -59.13,294.67l-9.56 296.93 245.14 -131.88 -2.46 128.27c341.3,-227.53 459.72,-628.55 618.7,-1027.64 -17.62,219.15 -138.06,487.75 -239.54,655.22 7.74,5.28 20.24,3.85 23.57,15.32l205.38 58.3c-11.75,351.3 -81.24,119.14 -128.98,377.97 273.51,-109.14 422.38,-565.89 429.92,-971 8.33,-445.95 -150.25,-777.06 -316.38,-1079.74 -46.99,68.42 -55.13,173.19 -153.19,284.47 -218.04,247.4 -574.06,301.97 -791.7,527.66z"/>
  <path class="fil3" d="M5861.44 13504.01l1.31 -94.65 220.89 -6.78c10.28,-25.56 4.05,-36.32 3.97,-45.36 -0.87,-126.68 -39.45,55.6 -3.93,-40.6l447.34 -150.33c184.98,-150.49 273.96,-8.42 403.25,-216.93l-307.21 -83.62c27.66,-23.53 25.32,-27.38 74.61,-43.81 0.32,-0.12 69.21,-15.6 74.06,-16.75 -181.45,-155.29 -655.82,20.88 -859.72,43.02 280.22,-122.23 501.23,-123.3 851.38,-116.76 -71.63,-43.02 -135.6,-40.12 -179.06,-67.78 -139.42,-88.74 -53.78,-217.96 123.07,-255.66 58.89,-12.58 119.45,-16.15 212.08,-7.82 -40.08,-35.48 28.41,-22.93 -115.89,-62.9 -42.1,-11.67 -108.42,-14.64 -152.47,-14.92 -677.72,-4.33 -1400.76,584.18 -1509.74,1033.55 452.7,-72.59 377.34,30.28 716.06,148.1z"/>
  <path class="fil4" d="M5139.98 14512.92c91.2,235.61 274.27,369.28 429.33,520.76 -96.16,-83.62 -185.42,-172.8 -298.09,-235.14 3.81,169.02 17.78,52.54 -27.54,101.36 -207.48,-243.96 -246.05,-167.64 -375.39,-220.94 -226.77,-93.46 -141.24,-207.83 -294.75,-317.41 130.25,634.66 928.62,1063.67 1722.74,1023.07 -126.52,-219.62 -187.96,-224.62 -206.17,-581.68 -162.63,-45.52 -40.68,-6.03 -164.42,-140.69l-68.42 -65.64c-291.85,-296.61 -130.84,-64.68 -360.03,-215.89 -82.75,-54.61 -33.97,-53.46 -290.98,-211.65 -14.65,-8.96 -52.51,-34.52 -58.18,-37.97 -24.41,-15.01 -2.38,-16.55 -60.96,-33.5 57.63,251.49 118.86,328.92 210.42,537.67 -106.84,-90.88 -2.34,-49.29 -157.56,-122.35z"/>
  <path class="fil5" d="M4858.49 13713.32c23.81,261.77 139.85,667.24 281.49,799.6 155.22,73.06 50.72,31.47 157.56,122.35 -91.56,-208.75 -152.79,-286.18 -210.42,-537.67 58.58,16.95 36.55,18.49 60.96,33.5 5.67,3.45 43.53,29.01 58.18,37.97 257.01,158.19 208.23,157.04 290.98,211.65 229.19,151.21 68.18,-80.72 360.03,215.89l68.42 65.64c123.74,134.66 1.79,95.17 164.42,140.69 -16.71,-244.86 74.33,-699.74 -90.41,-858.33l-12.26 361.02c-5.71,-6.74 -12.1,-16.82 -15.44,-21.7 -149.53,-217.68 -63.57,-134.38 -254.54,-251.38 -46.52,-28.49 -15.44,-8.53 -59.57,-42.9l-177.96 -124.57c-167.95,-118.23 -132.86,-108.26 -202.67,-218.83 -213.08,-19.53 -208.75,-23.61 -289.35,37.54l-62.15 65.96c-19.25,-47.82 42.46,-39.53 -67.27,-36.43z"/>
  <path class="fil6" d="M6547.49 14170.34c-190.25,99.54 -360.59,331.27 -355.71,636.33 6.04,377.54 192.72,451.63 347.06,638.35 -297.09,197.13 -616.8,150.06 -955.13,77.15 524.18,297.33 966.36,87.67 1316,-192.39l2.46 -128.27 -245.14 131.88 9.56 -296.93c-3.93,-231.1 45.08,-9.69 59.13,-294.67 15.16,-308.21 16.19,-377.1 41.79,-617.28 -131.28,10.12 -100.52,17.66 -220.02,45.83z"/>
  <path class="fil6" d="M6142.49 13652.44c102.51,159.42 756.94,390.39 1118.96,-121.8 78.77,-111.43 97.7,-292.52 166.28,-406.34 147.04,74.09 312.77,253.08 394.12,412.26l115.25 209.34c-47.18,-381.1 -374.64,-768.76 -699.98,-818.25l-120.57 19.37c69.61,75.8 94.02,55.8 142.51,145.97 -6.46,5.07 -18.17,8.17 -22.66,9.76l-234.5 103.86c-258.87,185.17 -473.14,325.58 -850.99,364.47 10,43.18 60.6,-46.23 -8.42,81.36z"/>
  <path class="fil7" d="M4858.49 13713.32c109.73,-3.1 48.02,-11.39 67.27,36.43l62.15 -65.96c80.6,-61.15 76.27,-57.07 289.35,-37.54 69.81,110.57 34.72,100.6 202.67,218.83l177.96 124.57c44.13,34.37 13.05,14.41 59.57,42.9 190.97,117 105.01,33.7 254.54,251.38 3.34,4.88 9.73,14.96 15.44,21.7l12.26 -361.02c-10.95,-384.96 -678.15,-633.55 -1036.96,-404.48 -38.97,-347.33 205.62,-614.7 294.04,-781.98 -122.19,62.63 -215.81,193.2 -297.69,354.04 -109.21,214.59 -93.42,340.63 -100.6,601.13z"/>
  <path class="fil5" d="M5861.44 13504.01c84.57,68.9 140.57,118.11 281.05,148.43 69.02,-127.59 18.42,-38.18 8.42,-81.36 377.85,-38.89 592.12,-179.3 850.99,-364.47l234.5 -103.86c4.49,-1.59 16.2,-4.69 22.66,-9.76 -48.49,-90.17 -72.9,-70.17 -142.51,-145.97l120.57 -19.37c-39.45,-32.98 -1.11,-16.19 -91.84,-58.06 -12.18,-5.63 -76.35,-26.91 -99.13,-33.26 -120.45,-33.69 -149.7,-41.82 -270.42,-31.15 -4.85,1.15 -73.74,16.63 -74.06,16.75 -49.29,16.43 -46.95,20.28 -74.61,43.81l307.21 83.62c-129.29,208.51 -218.27,66.44 -403.25,216.93l-447.34 150.33c-35.52,96.2 3.06,-86.08 3.93,40.6 0.08,9.04 6.31,19.8 -3.97,45.36l-220.89 6.78 -1.31 94.65z"/>
  <path class="fil6" d="M4573.54 14361.55c153.51,109.58 67.98,223.95 294.75,317.41 129.34,53.3 167.91,-23.02 375.39,220.94 45.32,-48.82 31.35,67.66 27.54,-101.36 -85.64,-140.37 -213.59,-277.89 -311.89,-479.73 -107.63,-221.09 -117.35,-409.64 -191.13,-613.75 -164.38,154.58 -224.14,344.84 -194.66,656.49z"/>
  <path class="fil8" d="M6767.39 12731.44c266.06,15.36 373.45,78.7 592.56,135.61 -40.52,-207.64 -229.79,-434.09 -436.47,-466.87 -92.63,-8.33 -153.19,-4.76 -212.08,7.82 -176.85,37.7 -262.49,166.92 -123.07,255.66 43.46,27.66 107.43,24.76 179.06,67.78z"/>
  <path class="fil8" d="M7378.84 15408.95c47.74,-258.83 117.23,-26.67 128.98,-377.97l-205.38 -58.3c-3.33,-11.47 -15.83,-10.04 -23.57,-15.32 -249.31,451.75 -393.85,388.57 -476.51,589.86 236.57,10.87 442.38,-1.19 576.48,-138.27z"/>
  <rect class="fil9 str0" x="3406.91" y="12569.63" width="179.21" height="3158.92"/>
  <rect class="fil9 str0" transform="matrix(0.728842 0.421763 -0.409782 0.750153 6276.12 10849)" width="3971.5" height="217.48"/>
  <rect class="fil9 str0" transform="matrix(0.735301 -0.425171 0.433898 0.764152 6293.4 17198.9)" width="3971.5" height="217.48"/>
 </g>
</svg>
